<?xml version="1.0" encoding="UTF-8"?>
<svg id="_レイヤー_1" data-name="レイヤー_1" xmlns="http://www.w3.org/2000/svg" version="1.1" viewBox="0 0 1024 1024">
  <!-- Generator: Adobe Illustrator 29.5.1, SVG Export Plug-In . SVG Version: 2.1.0 Build 141)  -->
  <defs>
    <style>
      .st0 {
        fill: #2a1103;
      }
    </style>
  </defs>
  <path class="st0" d="M587.95,403.63c-8.95,0-16.21,7.26-16.21,16.21h0v71.25l-59.73-79.36c-3.02-4.91-8.32-7.95-14.08-8.11-8.95,0-16.21,7.26-16.21,16.21h0v121.17c0,8.95,7.26,16.21,16.21,16.21s16.21-7.26,16.21-16.21v-71.68l59.31,81.49c1.51,2.27,3.78,3.94,6.4,4.69,1.97.44,4.01.44,5.97,0,3.79,1.38,7.98,1.07,11.52-.85l4.27-2.99c2.99-3.09,4.68-7.22,4.69-11.52v-120.32c.08-8.95-7.12-16.28-16.07-16.35-.76,0-1.52.04-2.28.14h0ZM392.53,523.52h-45.23v-103.68c0-8.95-7.26-16.21-16.21-16.21h0c-8.95,0-16.21,7.26-16.21,16.21v121.17c0,8.95,7.26,16.21,16.21,16.21h61.44c9.03,0,16.41-7.19,16.64-16.21.47-9.18-6.59-17-15.76-17.47-.29-.02-.58-.02-.88-.02h0ZM439.89,403.63c-9.03,0-16.41,7.19-16.64,16.21v121.17c.23,9.02,7.61,16.22,16.64,16.21,8.95,0,16.21-7.26,16.21-16.21v-121.17c0-8.95-7.26-16.21-16.21-16.21h0ZM764.16,85.33h-504.32c-96.28.23-174.27,78.23-174.51,174.51v504.32c.23,96.28,78.23,174.27,174.51,174.51h504.32c96.28-.23,174.27-78.23,174.51-174.51v-504.32c-.23-96.28-78.23-174.27-174.51-174.51ZM777.39,609.28c-1.68,2.54-3.53,4.97-5.55,7.25-10.17,12.52-21.61,23.96-34.13,34.13-85.33,79.79-228.69,175.36-247.89,160.43s27.31-75.09-22.61-85.33c-3.54.45-7.13.45-10.67,0-146.77-20.48-256-123.31-256-246.61,0-138.67,140.37-250.88,313.17-250.88s313.17,112.21,313.17,250.88c-1.48,47.69-18.91,93.51-49.49,130.13h0ZM704.43,404.05h-64.43c-8.95,0-16.21,7.26-16.21,16.21v121.17c0,8.95,7.26,16.21,16.21,16.21h63.15c8.95,0,16.21-7.26,16.21-16.21s-7.26-16.21-16.21-16.21h-43.95v-25.6h45.23c9.02-.23,16.22-7.61,16.21-16.64,0-8.95-7.26-16.21-16.21-16.21h-45.23v-26.03h45.23c8.95,0,16.21-7.26,16.21-16.21,2.36-8.64-2.72-17.55-11.36-19.92-1.58-.43-3.21-.62-4.85-.56h0Z"/>
</svg>