<?xml version="1.0" encoding="UTF-8"?>
<svg id="_レイヤー_1" data-name="レイヤー_1" xmlns="http://www.w3.org/2000/svg" version="1.1" viewBox="0 0 1024 1024">
  <!-- Generator: Adobe Illustrator 29.5.1, SVG Export Plug-In . SVG Version: 2.1.0 Build 141)  -->
  <defs>
    <style>
      .st0 {
        fill: #2a1103;
      }
    </style>
  </defs>
  <path class="st0" d="M512,377.33c-68.55,0-124.12,55.57-124.12,124.12s55.57,124.12,124.12,124.12,124.12-55.57,124.12-124.12-55.57-124.12-124.12-124.12ZM325.82,501.45c-.01-102.83,83.34-186.19,186.16-186.2,102.83-.01,186.19,83.34,186.2,186.16v.04c-.01,102.83-83.38,186.17-186.2,186.16-102.81-.01-186.15-83.35-186.16-186.16Z"/>
  <path class="st0" d="M341.33,175.63c-85.69,0-155.15,69.46-155.15,155.15v341.33c0,85.69,69.46,155.15,155.15,155.15h341.33c85.69,0,155.15-69.46,155.15-155.15v-341.33c0-85.69-69.46-155.15-155.15-155.15h-341.33ZM124.12,330.78c0-119.96,97.25-217.21,217.21-217.21h341.33c119.96,0,217.21,97.25,217.21,217.21v341.33c0,119.96-97.25,217.21-217.21,217.21h-341.33c-119.96,0-217.21-97.25-217.21-217.21h0v-341.33h0Z"/>
  <path class="st0" d="M713.7,346.3c25.71,0,46.55-20.83,46.55-46.54,0-25.71-20.83-46.55-46.54-46.55h0c-25.71,0-46.54,20.84-46.54,46.55,0,25.7,20.84,46.54,46.54,46.54Z"/>
</svg>